<?xml version="1.0" encoding="utf-8"?>
<!-- Generator: Adobe Illustrator 24.0.2, SVG Export Plug-In . SVG Version: 6.00 Build 0)  -->
<svg version="1.1" id="Layer_1" xmlns="http://www.w3.org/2000/svg" xmlns:xlink="http://www.w3.org/1999/xlink" x="0px" y="0px"
	 viewBox="0 0 200.5 200.5" style="enable-background:new 0 0 200.5 200.5;" xml:space="preserve">
<style type="text/css">
	.st0{fill:url(#SVGID_1_);}
	.st1{fill:url(#SVGID_2_);}
	.st2{fill:url(#SVGID_3_);}
	.st3{fill:url(#SVGID_4_);}
	.st4{fill:url(#SVGID_5_);}
	.st5{fill:url(#SVGID_6_);}
	.st6{fill:url(#SVGID_7_);}
	.st7{fill:url(#SVGID_8_);}
	.st8{fill:url(#SVGID_9_);}
	.st9{fill:url(#SVGID_10_);}
	.st10{fill:url(#SVGID_11_);}
	.st11{fill:url(#SVGID_12_);}
	.st12{fill:url(#SVGID_13_);}
	.st13{fill:url(#SVGID_14_);}
</style>
<g>
	
		<linearGradient id="SVGID_1_" gradientUnits="userSpaceOnUse" x1="7116.0371" y1="6510.4795" x2="7277.1709" y2="6606.5483" gradientTransform="matrix(4.489700e-11 -1 1 4.489700e-11 -6455.1216 7291.5835)">
		<stop  offset="0" style="stop-color:#00B1BA"/>
		<stop  offset="1" style="stop-color:#009199"/>
	</linearGradient>
	<path class="st0" d="M0,100.3L0,100.3C0,44.9,44.9,0,100.2,0l0,0c55.4,0,100.2,44.9,100.2,100.2v0c0,55.4-44.9,100.2-100.2,100.2h0
		C44.9,200.5,0,155.6,0,100.3z"/>
	<g>
		
			<linearGradient id="SVGID_2_" gradientUnits="userSpaceOnUse" x1="172.1179" y1="106.6948" x2="169.0762" y2="91.0272" gradientTransform="matrix(1 0 0 1 3.088022e-04 -1.755939e-04)">
			<stop  offset="0" style="stop-color:#F8CD74"/>
			<stop  offset="0.1866" style="stop-color:#FFE488"/>
			<stop  offset="0.7786" style="stop-color:#FFF496"/>
		</linearGradient>
		<path class="st1" d="M171.2,90.8c-4.5-2.8-14.5-6.7-11.7,1.5c2.2,6.4-2.8,19.6,3.3,17c5.2-2.2,12.5-8.8,19.4-11.4
			c0.8-0.3,0.8-1.5-0.1-1.7C178.4,95,174.4,92.8,171.2,90.8z"/>
		
			<linearGradient id="SVGID_3_" gradientUnits="userSpaceOnUse" x1="161.3031" y1="74.9442" x2="158.4287" y2="60.1384" gradientTransform="matrix(1 0 0 1 3.088022e-04 -1.755939e-04)">
			<stop  offset="0" style="stop-color:#F8CD74"/>
			<stop  offset="0.1866" style="stop-color:#FFE488"/>
			<stop  offset="0.7786" style="stop-color:#FFF496"/>
		</linearGradient>
		<path class="st2" d="M156.6,55.9c-5.1,0.4-14.4,1.7-8.9,8.1c6.2,7.2,4.6,11.4,9.1,12.3c5.1,1,4.6-5.4,6.7-9.8
			c0.1-0.3,0.3-0.6,0.4-0.8c1.5-3.5,3.5-7.3,5.7-10.5c0.5-0.7-0.2-1.7-1.1-1.4C164.9,55,160.2,55.6,156.6,55.9z"/>
		
			<linearGradient id="SVGID_4_" gradientUnits="userSpaceOnUse" x1="133.3338" y1="50.82" x2="129.9389" y2="33.3334" gradientTransform="matrix(1 0 0 1 3.088022e-04 -1.755939e-04)">
			<stop  offset="0" style="stop-color:#F8CD74"/>
			<stop  offset="0.1866" style="stop-color:#FFE488"/>
			<stop  offset="0.7786" style="stop-color:#FFF496"/>
		</linearGradient>
		<path class="st3" d="M128.3,32.9c-4.4,2.4-12.4,7.9-4.6,10.8c8.2,3.1,8.7,6.9,13.1,7.2c4.1,0.2,1.9-7.1,2-11.9
			c0.1-3.9,0-8.2,0.8-12.1c0.2-0.9-0.9-1.4-1.5-0.8C135.3,28.7,131.3,31.2,128.3,32.9z"/>
		
			<linearGradient id="SVGID_5_" gradientUnits="userSpaceOnUse" x1="71.3887" y1="169.3234" x2="67.9913" y2="151.8236" gradientTransform="matrix(1 0 0 1 3.088022e-04 -1.755939e-04)">
			<stop  offset="0" style="stop-color:#F8CD74"/>
			<stop  offset="0.1866" style="stop-color:#FFE488"/>
			<stop  offset="0.7786" style="stop-color:#FFF496"/>
		</linearGradient>
		<path class="st4" d="M72.1,165c4.4-2.5,12.5-8.3,4.6-10.8c-6.3-2.1-8.7-6.9-13.2-7.2c-4.1-0.2-1.9,7.2-2,11.9
			c0,3.9,0,8.2-0.8,12.1c-0.2,0.9,0.9,1.4,1.5,0.8C65.1,169.2,69,166.7,72.1,165z"/>
		
			<linearGradient id="SVGID_6_" gradientUnits="userSpaceOnUse" x1="98.5606" y1="41.6913" x2="95.1398" y2="24.0708" gradientTransform="matrix(1 0 0 1 3.088022e-04 -1.755939e-04)">
			<stop  offset="0" style="stop-color:#F8CD74"/>
			<stop  offset="0.1866" style="stop-color:#FFE488"/>
			<stop  offset="0.7786" style="stop-color:#FFF496"/>
		</linearGradient>
		<path class="st5" d="M90.7,29.6c-2.5,4.4-6.5,13.1,1.6,11.7c7.7-1.4,11,1.5,15-0.6c3.7-1.9-2-7.1-4.5-11.2
			c-2-3.4-4.2-7.1-5.6-10.8c-0.3-0.8-1.5-0.8-1.7,0.1C94.5,22.3,92.4,26.5,90.7,29.6z"/>
		
			<linearGradient id="SVGID_7_" gradientUnits="userSpaceOnUse" x1="67.9965" y1="51.3389" x2="64.6127" y2="33.9091" gradientTransform="matrix(1 0 0 1 3.088022e-04 -1.755939e-04)">
			<stop  offset="0" style="stop-color:#F8CD74"/>
			<stop  offset="0.1866" style="stop-color:#FFE488"/>
			<stop  offset="0.7786" style="stop-color:#FFF496"/>
		</linearGradient>
		<path class="st6" d="M56.5,42.8c0.1,5,1.1,14.6,7.4,9.2c5.3-4.6,10.2-4.4,12.6-8.2c2.2-3.5-5.4-5.1-9.6-7.4
			c-3.4-1.9-7.2-3.9-10.3-6.5c-0.7-0.6-1.7,0.1-1.4,1C56.1,34.7,56.4,39.3,56.5,42.8z"/>
		
			<linearGradient id="SVGID_8_" gradientUnits="userSpaceOnUse" x1="42.3111" y1="79.1343" x2="39.32" y2="63.727" gradientTransform="matrix(1 0 0 1 3.088022e-04 -1.755939e-04)">
			<stop  offset="0" style="stop-color:#F8CD74"/>
			<stop  offset="0.1866" style="stop-color:#FFE488"/>
			<stop  offset="0.7786" style="stop-color:#FFF496"/>
		</linearGradient>
		<path class="st7" d="M33.7,72.2c2.5,4.4,8,12.4,10.8,4.6c2.4-6.4,6.9-8.7,7.2-13.2c0.2-4.1-7.2-1.9-11.9-2c-3.9,0-8.2,0-12.1-0.8
			c-0.9-0.2-1.4,0.9-0.8,1.5C29.4,65.2,31.9,69.2,33.7,72.2z"/>
		
			<linearGradient id="SVGID_9_" gradientUnits="userSpaceOnUse" x1="159.837" y1="141.1768" x2="156.7194" y2="125.118" gradientTransform="matrix(1 0 0 1 3.088022e-04 -1.755939e-04)">
			<stop  offset="0" style="stop-color:#F8CD74"/>
			<stop  offset="0.1866" style="stop-color:#FFE488"/>
			<stop  offset="0.7786" style="stop-color:#FFF496"/>
		</linearGradient>
		<path class="st8" d="M165.3,128.1c-2.1-4.6-7.1-13.1-10.4-5.5c-2.1,4.7-7.6,8.1-8.3,12.5c-0.6,4.1,7,2.5,11.7,3
			c3.9,0.4,8.2,0.7,12,1.8c0.9,0.2,1.5-0.8,0.9-1.4C169,135.5,166.8,131.3,165.3,128.1z"/>
		
			<linearGradient id="SVGID_10_" gradientUnits="userSpaceOnUse" x1="136.0708" y1="169.787" x2="132.7463" y2="152.6626" gradientTransform="matrix(1 0 0 1 3.088022e-04 -1.755939e-04)">
			<stop  offset="0" style="stop-color:#F8CD74"/>
			<stop  offset="0.1866" style="stop-color:#FFE488"/>
			<stop  offset="0.7786" style="stop-color:#FFF496"/>
		</linearGradient>
		<path class="st9" d="M142.8,156.6c-0.1-4.8-1-14.3-7-9.5c-4.1,3.3-9.7,3.7-11.9,7.3c-2.1,3.3,5.3,5.1,9.1,7.8
			c3.3,1.9,6.8,4.2,9.7,6.8c0.7,0.6,1.7,0,1.5-0.9C143.2,164.5,142.9,160,142.8,156.6z"/>
		
			<linearGradient id="SVGID_11_" gradientUnits="userSpaceOnUse" x1="104.717" y1="181.1293" x2="101.293" y2="163.4924" gradientTransform="matrix(1 0 0 1 3.088022e-04 -1.755939e-04)">
			<stop  offset="0" style="stop-color:#F8CD74"/>
			<stop  offset="0.1866" style="stop-color:#FFE488"/>
			<stop  offset="0.7786" style="stop-color:#FFF496"/>
		</linearGradient>
		<path class="st10" d="M108.1,171c2.5-4.3,6.6-13.6-1.5-11.7c-8,1.9-11-1.6-15,0.5c-3.7,1.9,2,7.1,4.3,11.3
			c1.9,3.4,4.1,7.1,5.5,10.9c0.3,0.8,1.5,0.8,1.7-0.1C104.2,178.2,106.4,174,108.1,171z"/>
		
			<linearGradient id="SVGID_12_" gradientUnits="userSpaceOnUse" x1="42.2334" y1="142.3945" x2="39.3688" y2="127.6393" gradientTransform="matrix(1 0 0 1 3.088022e-04 -1.755939e-04)">
			<stop  offset="0" style="stop-color:#F8CD74"/>
			<stop  offset="0.1866" style="stop-color:#FFE488"/>
			<stop  offset="0.7786" style="stop-color:#FFF496"/>
		</linearGradient>
		<path class="st11" d="M42.9,142.3c5,0,14.6-0.7,9.4-7.1c-3.9-4.8-4.1-10.3-7.8-12.8c-3.5-2.3-5.2,5.2-7.7,9.3
			c-2,3.4-4.1,7.1-6.7,10.1c-0.6,0.7,0.1,1.7,0.9,1.5C34.7,142.5,39.4,142.3,42.9,142.3z"/>
		
			<linearGradient id="SVGID_13_" gradientUnits="userSpaceOnUse" x1="31.7649" y1="111.96" x2="28.8964" y2="97.1845" gradientTransform="matrix(1 0 0 1 3.088022e-04 -1.755939e-04)">
			<stop  offset="0" style="stop-color:#F8CD74"/>
			<stop  offset="0.1866" style="stop-color:#FFE488"/>
			<stop  offset="0.7786" style="stop-color:#FFF496"/>
		</linearGradient>
		<path class="st12" d="M17.8,103.4c3.7,1,7.9,3.1,10.9,4.9c4.3,2.5,12.9,6.6,11.7-1.6c-1.1-7.2,1.5-11-0.6-15
			c-1.9-3.7-7,2.2-11.3,4.4c-3.3,2.1-7.1,4.2-10.8,5.6"/>
		
			<linearGradient id="SVGID_14_" gradientUnits="userSpaceOnUse" x1="107.3043" y1="143.7928" x2="93.9531" y2="75.0211" gradientTransform="matrix(1 0 0 1 3.088022e-04 -1.755939e-04)">
			<stop  offset="0" style="stop-color:#F8CD74"/>
			<stop  offset="0.1866" style="stop-color:#FFE488"/>
			<stop  offset="0.7786" style="stop-color:#FFF496"/>
		</linearGradient>
		<path class="st13" d="M145.5,112.3c-13,55-92,41.7-93.1-12.8c-0.9-35.9,41.3-59.6,72.2-42.2c0.4,0.2,0.7,0.4,1.1,0.6
			c2.3,1.2,7.1,4.6,10.7,8.1c2,1.9-0.5,5-2.8,3.5c-1.8-1.2-3.5-2.3-4.9-3c-0.5-0.2-0.9-0.5-1.4-0.7c-5.9-3.1-11.9-5.2-18.8-5.5
			c-22.7-1.4-45,26.8-32,47.7c8,13.4,27.7,16.6,39.3,5.9c5.2-4.7,9.6-11.3,5.2-18.3c-2.8-4.4-9.1-6.1-9.8,0.7
			c-0.9,20.2-31.4,16.5-26.8-3.4C86.5,83,96,74.4,106.1,72.3C129.8,66.4,150.9,89.4,145.5,112.3z"/>
	</g>
</g>
</svg>
